<?xml version="1.0" encoding="utf-8"?>
<!-- Generator: Adobe Illustrator 17.0.0, SVG Export Plug-In . SVG Version: 6.00 Build 0)  -->
<!DOCTYPE svg PUBLIC "-//W3C//DTD SVG 1.1//EN" "http://www.w3.org/Graphics/SVG/1.1/DTD/svg11.dtd">
<svg version="1.1" id="Layer_1" xmlns="http://www.w3.org/2000/svg" xmlns:xlink="http://www.w3.org/1999/xlink" x="0px" y="0px"
	 width="35.736px" height="42.763px" viewBox="0 0 35.736 42.763" enable-background="new 0 0 35.736 42.763" xml:space="preserve">
<path id="bell-icon_2_" fill="#808080" d="M23.473,7.158c-1.15-0.66-1.861-1.889-1.859-3.215c0-0.002,0-0.004,0-0.006
	c0-2.069-1.677-3.746-3.746-3.746c-2.069,0-3.746,1.677-3.746,3.746c0,0.002,0,0.004,0,0.007c0.002,1.327-0.708,2.554-1.859,3.215
	C3.922,11.945,8.715,27.845,0,30.655v3.714h35.736v-3.714C27.021,27.845,31.814,11.945,23.473,7.158z M17.868,2.417
	c0.838,0,1.52,0.682,1.52,1.52c0,0.838-0.682,1.52-1.52,1.52c-0.838,0-1.52-0.682-1.52-1.52S17.03,2.417,17.868,2.417z
	 M23.029,37.463c0,2.822-2.287,5.109-5.109,5.109c-2.822,0-5.109-2.287-5.109-5.109H23.029z"/>
</svg>
