<?xml version="1.0" encoding="utf-8"?>
<!-- Generator: Adobe Illustrator 18.1.1, SVG Export Plug-In . SVG Version: 6.00 Build 0)  -->
<svg version="1.1" id="Layer_1" xmlns="http://www.w3.org/2000/svg" xmlns:xlink="http://www.w3.org/1999/xlink" x="0px" y="0px"
	 viewBox="-287 374.7 35.7 43.3" enable-background="new -287 374.7 35.7 43.3" xml:space="preserve">
<g>
	<g id="place_2_">
		<path fill="#2CAFCB" d="M-268.9,375c-6,0-10.8,4.9-10.8,10.9c0,6,10.8,23.7,10.8,23.7s10.8-17.6,10.8-23.7
			C-258.1,379.9-262.9,375-268.9,375z M-268.9,387.9c-1.8,0-3.3-1.5-3.3-3.3c0-1.8,1.5-3.3,3.3-3.3c1.8,0,3.3,1.5,3.3,3.3
			C-265.6,386.4-267,387.9-268.9,387.9z"/>
	</g>
</g>
<g>
	<path fill="#2FAFCB" d="M-271.7,418c-2-0.2-3.9-0.5-5.7-0.9l0.5-1.9c1.6,0.4,3.4,0.7,5.3,0.9L-271.7,418z M-266,418l-0.2-2
		c1.9-0.1,3.7-0.4,5.3-0.9l0.5,1.9C-262.1,417.5-264,417.8-266,418z M-282.8,414.8c-2.3-1.5-3.6-3.2-3.6-5.2l2,0
		c0,1.5,1.4,2.7,2.6,3.5L-282.8,414.8z M-254.9,414.8l-1.1-1.7c1.2-0.8,2.6-2,2.6-3.5l1.6-0.1l0.4,0
		C-251.3,411.5-252.6,413.3-254.9,414.8z M-281.8,406.1l-1.1-1.7c1.5-0.9,3.3-1.7,5.4-2.2l0.5,1.9
		C-278.8,404.6-280.5,405.3-281.8,406.1z M-256,406c-1.3-0.8-3-1.5-4.9-2l0.5-1.9c2.1,0.6,4,1.3,5.4,2.2L-256,406z M-271.6,403.2
		l-0.2-2c1.9-0.1,3.8-0.1,5.7,0l-0.1,2C-268,403.1-269.9,403.1-271.6,403.2z"/>
</g>
</svg>
