<?xml version="1.0" encoding="utf-8"?>
<!-- Generator: Adobe Illustrator 17.0.0, SVG Export Plug-In . SVG Version: 6.00 Build 0)  -->
<!DOCTYPE svg PUBLIC "-//W3C//DTD SVG 1.1//EN" "http://www.w3.org/Graphics/SVG/1.1/DTD/svg11.dtd">
<svg version="1.1" id="Layer_1" xmlns="http://www.w3.org/2000/svg" xmlns:xlink="http://www.w3.org/1999/xlink" x="0px" y="0px"
	 width="36.107px" height="38.032px" viewBox="0 0 36.107 38.032" enable-background="new 0 0 36.107 38.032" xml:space="preserve">
<path fill="#21AD8C" d="M25.798,0.016l0.002-0.002c2.667-0.132,5.214,0.68,7.18,2.288c1.968,1.608,2.996,3.694,3.117,6.103
	c0.121,2.406-0.753,4.771-2.552,6.567L12.359,36.132c-1.299,1.301-3.094,1.946-4.964,1.897c-1.724-0.041-3.339-0.584-4.768-1.752
	c-2.952-2.415-3.554-6.567-1.1-9.018L19.294,9.485c1.495-1.49,4.284-1.42,6.011,0.261c1.639,1.605,2.168,3.895,0.746,5.317
	L11.507,29.589l-2.044-2.017L23.531,13.52c0.305-0.305,0.561-1.083-0.151-1.848c-0.424-0.449-1.434-0.729-2.044-0.114L3.763,29.108
	c-1.382,1.385-0.981,3.774,0.802,5.235c0.93,0.758,1.89,1.065,2.934,1.089c1.021,0.03,1.932-0.375,2.665-1.108l21.184-21.159
	c1.283-1.278,1.965-2.903,1.879-4.616c-0.085-1.715-0.855-3.011-2.183-4.312c-1.292-1.264-3.217-1.722-5.114-1.629l0,0
	c-1.899,0.095-3.53,1.284-4.81,2.563L2.442,23.826l-2.048-2.061L18.87,3.31C20.67,1.515,23.134,0.148,25.798,0.016z"/>
</svg>
