<?xml version="1.0" encoding="utf-8"?>
<!-- Generator: Adobe Illustrator 17.0.0, SVG Export Plug-In . SVG Version: 6.00 Build 0)  -->
<!DOCTYPE svg PUBLIC "-//W3C//DTD SVG 1.1//EN" "http://www.w3.org/Graphics/SVG/1.1/DTD/svg11.dtd">
<svg version="1.1" id="Layer_1" xmlns="http://www.w3.org/2000/svg" xmlns:xlink="http://www.w3.org/1999/xlink" x="0px" y="0px"
	 width="32.191px" height="31.543px" viewBox="0 -0.173 32.191 31.543" enable-background="new 0 -0.173 32.191 31.543"
	 xml:space="preserve">
<path id="calendar-5-icon_6_" fill="#808080" d="M11.521,18.72H6.919v-4.602h4.602V18.72z M18.475,14.118h-4.602v4.602h4.602V14.118
	z M25.429,14.118h-4.602v4.602h4.602V14.118z M11.521,20.837H6.919v4.603h4.602V20.837z M18.475,20.837h-4.602v4.603h4.602V20.837z
	 M25.429,20.837h-4.602v4.603h4.602V20.837z M27.143,4.826c0,0.784-0.636,1.42-1.42,1.42s-1.42-0.636-1.42-1.42V1.253
	c0-0.784,0.636-1.42,1.42-1.42s1.42,0.636,1.42,1.42V4.826z M7.961,1.247c0-0.784-0.636-1.42-1.42-1.42
	c-0.784,0-1.42,0.636-1.42,1.42V4.82c0,0.784,0.636,1.42,1.42,1.42c0.784,0,1.42-0.636,1.42-1.42V1.247z M28.859,3.32v1.455
	c0,1.729-1.407,3.136-3.136,3.136c-1.729,0-3.136-1.407-3.136-3.136V3.32H9.677v1.448c0,1.729-1.407,3.136-3.136,3.136
	c-1.729,0-3.136-1.407-3.136-3.136V3.32H0v28.05h32.191V3.32L28.859,3.32L28.859,3.32z M29.066,28.244H3.125V10.862h25.941V28.244z"
	/>
</svg>
