<?xml version="1.0" encoding="utf-8"?>
<!-- Generator: Adobe Illustrator 17.0.0, SVG Export Plug-In . SVG Version: 6.00 Build 0)  -->
<!DOCTYPE svg PUBLIC "-//W3C//DTD SVG 1.1//EN" "http://www.w3.org/Graphics/SVG/1.1/DTD/svg11.dtd">
<svg version="1.1" id="Layer_1" xmlns="http://www.w3.org/2000/svg" xmlns:xlink="http://www.w3.org/1999/xlink" x="0px" y="0px"
	 width="41.452px" height="32.327px" viewBox="3.811 8.923 41.452 32.327" enable-background="new 3.811 8.923 41.452 32.327"
	 xml:space="preserve">
<g>
	<circle fill="#808080" cx="24.569" cy="26.984" r="7.646"/>
	<path fill="#808080" d="M45.336,12.399H31.228v-1.586c0-2.103,0-1.883,0-1.883H18.071c0,0,0-0.22,0,1.883v1.586
		c0,0-1.415-0.023-2.615,0c-1.199,0.02-2.552,0.471-2.552,0.471l-9.082,2.932c0,0,0.021,1.274,0,2.183
		c-0.024,0.911,0,21.364,0,21.364c0,1.05,0,1.902,0,1.902s41.465-0.004,41.515,0c0.052,0.005,0-0.852,0-1.902V14.301
		C45.336,13.25,45.336,12.399,45.336,12.399z M24.571,38.156c-6.173,0-11.174-5.004-11.174-11.172c0-6.169,5-11.172,11.174-11.172
		c6.169,0,11.171,5.003,11.171,11.172C35.742,33.151,30.74,38.156,24.571,38.156z"/>
	<path fill="#808080" d="M12.188,11.431l-6.642,2.25v-3.047c0-0.325,0-0.586,0-0.586h6.642c0,0,0,0.261,0,0.586V11.431z"/>
</g>
</svg>
