<?xml version="1.0" encoding="utf-8"?>
<!-- Generator: Adobe Illustrator 18.1.0, SVG Export Plug-In . SVG Version: 6.00 Build 0)  -->
<svg version="1.1" id="Layer_1" xmlns="http://www.w3.org/2000/svg" xmlns:xlink="http://www.w3.org/1999/xlink" x="0px" y="0px"
	 viewBox="-909 490.5 100.4 100.3" enable-background="new -909 490.5 100.4 100.3" xml:space="preserve">
<g>
	<path fill="#21A37B" d="M-909,540.6c0-5.1,3.8-8.5,8.8-8.5c3.6,0,5.7,2,6.9,4l-3,1.5c-0.7-1.3-2.2-2.4-3.9-2.4
		c-3,0-5.2,2.3-5.2,5.4c0,3.1,2.2,5.4,5.2,5.4c1.7,0,3.2-1,3.9-2.4l3,1.5c-1.2,2.1-3.3,4.1-6.9,4.1
		C-905.2,549.1-909,545.7-909,540.6z"/>
	<path fill="#21A37B" d="M-879.9,548.8v-6.9h-7.8v6.9h-3.5v-16.5h3.5v6.5h7.8v-6.5h3.5v16.5H-879.9z"/>
	<path fill="#21A37B" d="M-861.7,548.8l-1-2.8h-7.1l-1,2.8h-4l6.4-16.5h4.4l6.4,16.5H-861.7z M-866.3,535.8l-2.6,7.1h5.1
		L-866.3,535.8z"/>
	<path fill="#21A37B" d="M-844.8,548.8l-7.9-10.8v10.8h-3.5v-16.5h3.6l7.6,10.4v-10.4h3.5v16.5H-844.8z"/>
	<path fill="#21A37B" d="M-838.9,540.6c0-5.2,4-8.5,8.8-8.5c3.4,0,5.6,1.7,6.8,3.7l-2.9,1.6c-0.7-1.2-2.2-2.2-3.9-2.2
		c-3,0-5.2,2.3-5.2,5.4c0,3.1,2.2,5.4,5.2,5.4c1.5,0,2.8-0.6,3.5-1.3v-2h-4.4v-3.1h7.9v6.3c-1.7,1.9-4,3.1-7,3.1
		C-835,549.1-838.9,545.8-838.9,540.6z"/>
	<path fill="#21A37B" d="M-820.3,548.8v-16.5h11.7v3.1h-8.2v3.5h8v3.1h-8v3.7h8.2v3.1H-820.3z"/>
</g>
</svg>
