<?xml version="1.0" encoding="utf-8"?>
<!-- Generator: Adobe Illustrator 18.1.0, SVG Export Plug-In . SVG Version: 6.00 Build 0)  -->
<svg version="1.1" id="Layer_1" xmlns="http://www.w3.org/2000/svg" xmlns:xlink="http://www.w3.org/1999/xlink" x="0px" y="0px"
	 viewBox="-943 527.8 33.6 27.7" enable-background="new -943 527.8 33.6 27.7" xml:space="preserve">
<g>
	<path fill="#808080" d="M-920.5,555.5c-1-0.1-2-0.4-3-0.9l1.6-3.1c0.6,0.3,1.2,0.5,1.7,0.6L-920.5,555.5z M-917.2,554.6l-1.7-3
		c0.5-0.3,1.1-0.8,1.7-1.3l2.3,2.5C-915.6,553.5-916.3,554.1-917.2,554.6z M-926,553c-0.7-0.5-1.4-1.2-2.1-1.8l2.5-2.4
		c0.5,0.6,1.1,1.1,1.7,1.5L-926,553z M-913.1,551.2l-2.3-2.6c0.7-0.6,1.4-1.1,2-1.6l0.1-0.1l2,2.8c-0.1,0-0.1,0.1-0.2,0.1
		C-912,550.3-912.5,550.7-913.1,551.2z M-929.8,549.1c-0.6-0.7-1.1-1.4-1.5-2.1l2.8-2c0.4,0.6,0.9,1.3,1.4,2L-929.8,549.1z
		 M-912.8,546.4c0-0.2-0.1-0.6-0.7-1.5l2.9-1.9c0.8,1.2,1.2,2.2,1.2,3.1L-912.8,546.4z M-932.7,545.1c-0.5-0.7-1-1.2-1.4-1.4l2-2.8
		c0.7,0.5,1.4,1.2,2.1,2.2L-932.7,545.1z M-935.5,543.3c-1.1,0-2.1-0.3-3.2-0.8l1.5-3.1c0.6,0.3,1.1,0.4,1.7,0.4L-935.5,543.3z
		 M-914.9,543.1c-0.3-0.4-0.7-0.9-1.1-1.3l-0.5-0.6l2.6-2.2l0.5,0.6c0.4,0.5,0.8,0.9,1.1,1.3L-914.9,543.1z M-941.2,540.6
		c-0.8-0.9-1.3-1.9-1.5-2.9l3.3-0.8c0.1,0.5,0.4,1,0.8,1.5L-941.2,540.6z M-918.1,539.2c-0.6-0.7-1.1-1.4-1.6-2.1l2.8-1.9
		c0.4,0.6,0.9,1.2,1.4,1.9L-918.1,539.2z M-939.3,535.4l-3.2-1.2c0.3-0.9,0.8-1.7,1.5-2.4c0.1-0.2,0.3-0.3,0.5-0.4
		c0,0,1-0.5,2.4-1.1l1.3,3.2c-0.9,0.3-1.5,0.6-1.9,0.8C-938.9,534.7-939.1,535-939.3,535.4z M-921.1,534.8c-0.2-0.4-0.4-0.7-0.6-1.1
		c-0.1-0.3-0.3-0.6-0.5-0.8l2.7-2.2c0.4,0.4,0.7,0.9,0.9,1.5c0.2,0.3,0.3,0.6,0.5,0.9L-921.1,534.8z M-934.5,532.7l-1.1-3.3
		c0.9-0.3,1.7-0.5,2.5-0.8l0.9,3.3C-932.9,532.2-933.7,532.4-934.5,532.7z M-923.5,531.8c-0.5-0.3-1.2-0.4-1.9-0.5l0.5-3.4
		c1.1,0.1,2.1,0.4,2.9,0.8L-923.5,531.8z M-929.9,531.5l-0.6-3.4c0.9-0.2,1.8-0.3,2.7-0.3l0.2,3.4
		C-928.3,531.2-929.1,531.3-929.9,531.5z"/>
</g>
</svg>
