<?xml version="1.0" encoding="utf-8"?>
<!-- Generator: Adobe Illustrator 18.1.1, SVG Export Plug-In . SVG Version: 6.00 Build 0)  -->
<svg version="1.1" id="Layer_1" xmlns="http://www.w3.org/2000/svg" xmlns:xlink="http://www.w3.org/1999/xlink" x="0px" y="0px"
	 viewBox="0 -2 1920 1920" enable-background="new 0 -2 1920 1920" xml:space="preserve">
<path id="info-8-icon" d="M1080.3,1262.8H880.1V837.3h200.3V1262.8z M980.2,743.3c-59.7,0-108.1-48.4-108.1-108.1
	c0-59.7,48.4-108.1,108.1-108.1c59.7,0,108.1,48.4,108.1,108.1C1088.3,695,1039.9,743.3,980.2,743.3z M130.7,1752.3
	c67.4-134,142.2-318,138.4-446.3C178.3,1196.5,127,1055.5,127,911.8c0-405.1,393-701.3,833-701.3c437.3,0,833,294,833,701.3
	c0,424.2-467.3,820.3-1108.5,662.9C568.1,1646.6,311.3,1719.4,130.7,1752.3z M960,372.7c-369.9,0-670.8,241.8-670.8,539.1
	c0,156.4,67.5,254.9,162.8,352c-19.4,144.2-65.9,269.6-65.9,269.6s137.5-36.4,293.7-127.6c597.7,158.5,951-186.4,951-494
	C1630.8,614.5,1329.9,372.7,960,372.7z"/>
</svg>
