<?xml version="1.0" encoding="utf-8"?>
<!-- Generator: Adobe Illustrator 18.1.1, SVG Export Plug-In . SVG Version: 6.00 Build 0)  -->
<svg version="1.1" id="Layer_1" xmlns="http://www.w3.org/2000/svg" xmlns:xlink="http://www.w3.org/1999/xlink" x="0px" y="0px"
	 viewBox="0 0 1000 984.5" enable-background="new 0 0 1000 984.5" xml:space="preserve">
<path opacity="0.67" d="M1002.9,212.9H869.9V346h-66.5V212.9H670.3v-66.5h133.1V13.3h66.5v133.1h133.1V212.9z M626.8,763.3
	c0,99.7-91.1,221.2-320.2,221.2C139,984.5-0.8,912.2-0.8,790.6c0-93.8,59.4-215.6,337-215.6c-41.2-33.6-51.3-80.6-26.1-131.5
	c-162.5,0-245.8-95.6-245.8-216.9C64.3,107.9,152.6,0,332.6,0c45.5,0,288.4,0,288.4,0l-64.5,67.7h-75.7
	c53.4,30.6,81.8,93.6,81.8,163.1c0,63.8-35.1,115.4-85.2,154.2c-88.9,68.8-66.2,107.1,27,175.1C596.4,628.8,626.8,682,626.8,763.3z
	 M446.9,235.1C433.4,133,366.9,49.3,289.2,46.9c-77.7-2.3-129.9,75.8-116.4,177.9c13.4,102.1,87.3,173.4,165.1,175.7
	C415.5,402.9,460.3,337.2,446.9,235.1z M527,773.5c0-84-76.6-164-205.1-164c-115.8-1.3-214,73.2-214,159.5
	c0,88.1,83.6,161.4,199.5,161.4C455.4,930.4,527,861.6,527,773.5z"/>
</svg>
