<?xml version="1.0" encoding="utf-8"?>
<!-- Generator: Adobe Illustrator 17.0.0, SVG Export Plug-In . SVG Version: 6.00 Build 0)  -->
<!DOCTYPE svg PUBLIC "-//W3C//DTD SVG 1.1//EN" "http://www.w3.org/Graphics/SVG/1.1/DTD/svg11.dtd">
<svg version="1.1" id="Layer_1" xmlns="http://www.w3.org/2000/svg" xmlns:xlink="http://www.w3.org/1999/xlink" x="0px" y="0px"
	 width="33.413px" height="22.827px" viewBox="0 0 33.413 22.827" enable-background="new 0 0 33.413 22.827" xml:space="preserve">
<g>
	<g>
		<path fill="#808080" d="M16.828,0c-4.211,0-7.623,3.413-7.623,7.624c0,4.212,3.413,7.626,7.623,7.626
			c4.213,0,7.625-3.414,7.625-7.626C24.453,3.413,21.041,0,16.828,0z M17.2,13.662c-2.273,0-4.272-1.491-5.437-3.751h10.872
			C21.47,12.171,19.474,13.662,17.2,13.662z"/>
		<g>
			<path fill="#808080" d="M8.558,10.659c-0.604,0.639-1.376,1.03-2.221,1.03c-1.223,0-2.297-0.802-2.924-2.017h4.849
				C8.105,9.015,8.019,8.329,8.019,7.624c0-0.902,0.137-1.773,0.39-2.594c-0.65-0.434-1.431-0.688-2.272-0.688
				c-2.264,0-4.098,1.835-4.098,4.1s1.834,4.1,4.098,4.1c1.067,0,2.036-0.41,2.765-1.079C8.774,11.203,8.659,10.934,8.558,10.659z"
				/>
		</g>
		<g>
			<path fill="#808080" d="M27.525,4.343c-0.842,0-1.625,0.255-2.275,0.69c0.252,0.82,0.389,1.69,0.389,2.591
				c0,0.705-0.086,1.391-0.243,2.048h5.252c-0.625,1.215-1.7,2.017-2.922,2.017c-0.986,0-1.873-0.529-2.509-1.37
				c-0.126,0.394-0.279,0.775-0.457,1.142c0.73,0.669,1.699,1.081,2.766,1.081c2.266,0,4.1-1.835,4.1-4.1
				C31.625,6.178,29.791,4.343,27.525,4.343z"/>
		</g>
	</g>
	<g>
		<path fill="#808080" d="M21.429,16.238c-1.371,0.736-2.938,1.154-4.601,1.154c-1.662,0-3.228-0.418-4.599-1.154
			c-2.962,0.779-5.283,2.624-6.348,6.589h21.898C26.715,18.86,24.393,17.016,21.429,16.238z"/>
		<g>
			<g>
				<path fill="#808080" d="M11.007,14.539c-0.633-0.768-1.453-1.218-2.397-1.466c-0.737,0.395-1.579,0.621-2.474,0.621
					c-0.893,0-1.736-0.225-2.473-0.621c-1.592,0.418-2.84,1.41-3.413,3.543h7.059C8.344,15.7,9.578,15.006,11.007,14.539z"/>
			</g>
		</g>
		<g>
			<g>
				<path fill="#808080" d="M26.352,16.616h7.061c-0.572-2.133-1.82-3.125-3.413-3.543c-0.738,0.395-1.579,0.621-2.474,0.621
					c-0.893,0-1.736-0.225-2.472-0.621c-0.942,0.248-1.763,0.699-2.397,1.467C24.085,15.007,25.317,15.7,26.352,16.616z"/>
			</g>
		</g>
	</g>
</g>
</svg>
