<?xml version="1.0" encoding="utf-8"?>
<!-- Generator: Adobe Illustrator 17.0.0, SVG Export Plug-In . SVG Version: 6.00 Build 0)  -->
<!DOCTYPE svg PUBLIC "-//W3C//DTD SVG 1.1//EN" "http://www.w3.org/Graphics/SVG/1.1/DTD/svg11.dtd">
<svg version="1.1" id="Layer_1" xmlns="http://www.w3.org/2000/svg" xmlns:xlink="http://www.w3.org/1999/xlink" x="0px" y="0px"
	 width="33.471px" height="31.314px" viewBox="0 0 33.471 31.314" enable-background="new 0 0 33.471 31.314" xml:space="preserve">
<path id="facebook-like-icon_6_" fill="#808080" d="M29.589,10.628h-4.228V6.799l0.926-3.162V0h-5.921c0,0-1.519,3.338-2.053,4.628
	c-1.76,4.248-3.579,8.636-7.336,9.367v-1.882H0v18.537h10.976v-1.602H14.7l4.138,2.266h10.069l4.565-4.08V13.156L29.589,10.628z
	 M19.487,28.953l-4.021-2.266l-4.48,0.005V16.388c0.037-0.005,0.078-0.011,0.123-0.017c5.217-0.781,7.431-6.124,9.385-10.838
	c0.367-0.884,1.145-2.655,1.373-3.172h2.061v1.207l-0.926,3.162v6.259h5.961l2.149,1.371v11.99l-2.971,2.603L19.487,28.953
	L19.487,28.953z"/>
</svg>
