<?xml version="1.0" encoding="utf-8"?>
<!-- Generator: Adobe Illustrator 18.1.1, SVG Export Plug-In . SVG Version: 6.00 Build 0)  -->
<svg version="1.1" id="Layer_1" xmlns="http://www.w3.org/2000/svg" xmlns:xlink="http://www.w3.org/1999/xlink" x="0px" y="0px"
	 viewBox="0 0 900 940" enable-background="new 0 0 900 940" xml:space="preserve">
<g id="eye-6-icon_9_">
	<path d="M452,652.1c-122.5,0-233.8-84.3-303.7-186.7c70.5-98.9,181.9-166.7,303.7-166.7c122.1,0,233.8,66.6,302.3,166.1
		C689.4,572.9,578.3,652.1,452,652.1z M212.4,466.2c58.5,72.3,144.9,134.4,239.6,134.4c129,0,212.4-96.6,239.8-133.8
		C633.6,398.4,548,350.1,452,350.1C327.2,350.1,242.2,432.3,212.4,466.2z M454.7,373.3c-56.4,0-102,45.7-102,102s45.7,102,102,102
		s102-45.7,102-102S511,373.3,454.7,373.3z M454.6,475.3c-14.4,14.4-37.8,14.4-52.2,0c-14.4-14.4-14.4-37.8,0-52.2
		c14.4-14.4,37.8-14.4,52.2,0C469,437.6,469,460.9,454.6,475.3z"/>
</g>
<g>
	<path d="M401.5,876.4l-0.4-0.1c-72-9.4-140.5-37.5-198-81.5l41.3-54c48,36.7,105.2,60.2,165.5,68.1L401.5,876.4z M509.4,876.3
		l-9-67.5c59.9-8,117.1-31.8,165.3-69l41.5,53.9C649.6,838.2,581.2,866.7,509.4,876.3z M126.5,718.6c-44.5-57.6-73-126.1-82.6-197.8
		l67.4-9c8,59.9,31.9,117.1,69,165.3L126.5,718.6z M783.6,717.2l-54-41.4c36.8-48,60.3-105.3,68.2-165.6l0-0.4l67.5,8.3l-0.1,0.8
		C855.9,591.2,827.6,659.7,783.6,717.2z M111.3,421.1l-40.9-5l-26.6-3.5c9.4-72.3,37.5-140.7,81.4-198.2l54.1,41.3
		C142.6,303.7,119.1,360.8,111.3,421.1z M797.6,419.3c-8.1-59.9-32-117.1-69.2-165.2l53.9-41.6c44.5,57.6,73.1,126,82.8,197.8
		L797.6,419.3z M243,191.7l-41.6-53.9c57.6-44.5,126-73.1,197.8-82.7l9,67.4C348.4,130.6,291.2,154.5,243,191.7z M664.4,190.3
		c-47.9-36.6-105.1-60.1-165.3-67.9l-0.5-0.1l8.8-67.5l0.5,0.1c72,9.3,140.4,37.5,197.8,81.3L664.4,190.3z"/>
</g>
</svg>
