<?xml version="1.0" encoding="utf-8"?>
<!-- Generator: Adobe Illustrator 17.0.0, SVG Export Plug-In . SVG Version: 6.00 Build 0)  -->
<!DOCTYPE svg PUBLIC "-//W3C//DTD SVG 1.1//EN" "http://www.w3.org/Graphics/SVG/1.1/DTD/svg11.dtd">
<svg version="1.1" id="Layer_1" xmlns="http://www.w3.org/2000/svg" xmlns:xlink="http://www.w3.org/1999/xlink" x="0px" y="0px"
	 width="43.368px" height="43.416px" viewBox="0 0 43.368 43.416" enable-background="new 0 0 43.368 43.416" xml:space="preserve">
<g>
	<polygon fill="#FFFFFF" points="37.878,17.447 38.069,17.351 38.142,17.161 38.111,17.181 37.899,17.059 37.67,17.018 
		37.583,17.291 37.684,17.433 	"/>
	<polygon fill="#FFFFFF" points="38.888,18.72 38.8,18.417 36.948,17.215 36.501,17.187 36.102,17.626 35.902,18.173 36.068,18.475 
			"/>
	<polygon fill="#FFFFFF" points="10.484,17.272 10.271,18.039 10.962,17.254 11.019,17.009 10.722,16.892 	"/>
	<polygon fill="#FFFFFF" points="10.902,16.036 10.901,16.077 9.714,16.635 11.214,16.339 	"/>
	<polygon fill="#FFFFFF" points="11.8,17.523 11.946,17.406 12.074,17.109 12.053,17.149 12.157,16.8 11.874,16.758 11.658,16.813 
		11.516,16.965 11.445,17.215 11.634,17.458 	"/>
	<polygon fill="#FFFFFF" points="35.49,12.18 35.277,12.062 34.327,12.004 33.928,11.667 34.41,9.887 32.05,13.707 31.429,14.172 
		32.58,14.609 	"/>
	<polygon fill="#FFFFFF" points="37.715,22.767 40.064,26.499 38.169,22.972 	"/>
	<path fill="#FFFFFF" d="M21.685,0C9.666,0-0.081,9.743-0.081,21.764s9.747,21.764,21.766,21.764s21.762-9.742,21.762-21.764
		S33.705,0,21.685,0z M28.937,14.953l-0.05,0.615l-0.891,0.206l-0.377-0.949l-0.007-1.851L28.937,14.953z M28.771,10.162
		l-0.557,0.434l-0.869-0.083l-0.07-0.176l0.027-0.8l0.643,0.142l0.674-0.151l0.316,0.127L28.771,10.162z M16.862,3.33l0.39-0.512
		c0.65-0.15,1.31-0.268,1.985-0.353l-2.113,1.382l-1.09,0.043L16.862,3.33z M14.718,3.735l0.409,0.08l1.417,0.805l0.34,0.052
		l-0.568,0.545l-0.917-0.124l-0.717-0.569L14.718,3.735z M13.877,3.918l0.085,0.124l-0.237,0.29l-0.433,0.185l-0.398,0.024
		l-0.077-0.104C13.167,4.259,13.515,4.073,13.877,3.918z M11.778,6.406l0.733-0.808l0.285,0.147l-0.107,0.525l-0.382,0.45
		l-0.532-0.078L11.778,6.406z M7.947,8L8.522,7.6L8.417,7.494c0.602-0.555,1.235-1.08,1.903-1.556l0.095,0.034l0.95-0.185
		L11.338,6.85L10.24,8.031L8.833,8.681L7.876,8.134L7.947,8z M2.502,23.869l-0.395-0.884c-0.004-0.065-0.01-0.131-0.01-0.196
		l0.421,0.722L2.502,23.869z M20.591,36.063l-2.146,1.584l-2.415,3.092c-1.396-0.421-2.718-1.003-3.963-1.708l-0.069-2.473
		l-2.307-4.463l0.036-0.87l0.663-1.587l-0.015-1.068l-0.727-0.805l-5.322-2.347l-1.768-3.003l-0.485-0.179l-0.01,0.031
		c-0.001-0.066-0.01-0.127-0.01-0.189c-0.039-5.212,1.973-9.953,5.263-13.493l0.605,0.337l3.345-0.688l0.396-0.231l0.089,0.182
		l-0.237,0.447l-0.045,0.196l2.324-3.24l0.169-0.063l0.152-0.001l0.134,0.056l0.12,0.117l-1.463,2.725l0.562,0.528l0.791-0.542
		l0.176-2.444l1-0.316l-0.478,0.784l1.483-0.84l0.516,0.119l0.052,0.247l-0.944,0.169l1.783,1.519l0.691,1.187l-0.897,0.985
		l0.144,0.167l-0.653,1.034l-0.157-0.01l-0.335,0.179l-1.537-0.966l1.544-1.261l-0.23-0.51l-1.47-0.929l-0.472,1.331l-3.189,2.472
		l-1.043,1.567l0.885,1.009l1.435,0.66l0.605,0.542l1.254-3.208l0.484-0.466l2.151,1.037l0.247-0.034l1.767,4.268l-0.531,0.2
		l-0.657-0.033l-0.213-0.285l0.296-0.209l0.167-0.217l0.036-0.227l-0.096-0.24l-2.694,0.764l1.06,0.782l0.595,0.076l-4.098,2.284
		l-1.857,2.702l0.013,1.421l-0.685-0.162l-0.325-0.931l-2.215-0.412l-0.888,0.494l-0.747,1.015L6.082,24.27l0.083,0.669l0.427,0.458
		l1.188-0.571l0.38,0.045l1.447,2.442l4.766,0.162l2.029,0.77l1.647,2.158l2.813,0.834l0.981,0.727L20.591,36.063z M13.969,10.658
		l-0.257,0.162l-0.817-0.004l-0.12-0.127l0.668-0.839l0.18,0.044l0.181,0.261L13.969,10.658z M21.267,11.205l-0.448-1.284
		l0.169-1.217l0.705-1.655l-0.412-2.75L19.86,4.114l-0.202-0.368l0.102-0.499l0.521-0.749l0.255-0.139
		c0.335-0.021,0.664-0.055,1.002-0.058c2.566-0.019,5.011,0.469,7.263,1.347l-1.298,3.476l-5.531,4.785L21.267,11.205z
		 M40.603,27.125c-1.206,4.394-3.892,8.174-7.502,10.761l-2.652-8.891l-1.393-0.397l-3.089,0.01l-1.869-1.102l0.107-2.188
		l2.508-4.931l-0.122-1.031l0.127-0.843l1.637-0.651l-0.103-0.464l-0.306-0.512l-0.028-0.36l3.787-2.791v-0.534l-1.348-1.036
		l-0.134-0.506l2.867-3.891l1.094-0.469l0.598,0.039c0.714,0.641,1.393,1.318,2.005,2.054l-0.262,0.079l0.712,0.729l0.124-0.052
		c1.668,2.216,2.894,4.788,3.503,7.597l-0.038,0.144l0.105,0.213c0.236,1.191,0.373,2.423,0.385,3.685
		c0.012,1.778-0.232,3.494-0.662,5.135l-0.151,0.093L40.603,27.125z"/>
	<polygon fill="#FFFFFF" points="37.863,20.272 34.926,19.473 34.63,19.114 34.688,19.969 34.613,20.034 32.312,17.633 
		32.308,17.65 31.938,17.739 31.877,17.651 31.988,18.114 32.895,18.778 32.963,19.263 32.786,19.561 32.656,19.658 32.49,19.717 
		31.625,18.358 30.325,18.365 27.613,20.378 31.171,20.248 32.779,21.706 33.546,21.974 37.815,21.118 	"/>
</g>
</svg>
