<?xml version="1.0" encoding="utf-8"?>
<!-- Generator: Adobe Illustrator 18.1.0, SVG Export Plug-In . SVG Version: 6.00 Build 0)  -->
<svg version="1.1" id="Layer_1" xmlns="http://www.w3.org/2000/svg" xmlns:xlink="http://www.w3.org/1999/xlink" x="0px" y="0px"
	 viewBox="-932 512.6 54.8 57" enable-background="new -932 512.6 54.8 57" xml:space="preserve">
<g id="_x3C_Compound_Path_x3E__1_">
	<path fill="#808080" d="M-918.3,541.2c0,3.8-3.1,6.8-6.9,6.8s-6.9-3.1-6.9-6.8c0-3.8,3.1-6.8,6.9-6.8S-918.3,537.4-918.3,541.2z
		 M-897.3,541.2c0-3.8-3.1-6.8-6.9-6.8c-3.8,0-6.9,3.1-6.9,6.8c0,3.8,3.1,6.8,6.9,6.8C-900.4,548-897.3,544.9-897.3,541.2z
		 M-877.2,541.2c0-3.8-3.1-6.8-6.9-6.8c-3.8,0-6.9,3.1-6.9,6.8c0,3.8,3.1,6.8,6.9,6.8C-880.3,548-877.2,544.9-877.2,541.2z"/>
	<path fill="#808080" d="M-918.3,541.2c0,3.8-3.1,6.8-6.9,6.8s-6.9-3.1-6.9-6.8c0-3.8,3.1-6.8,6.9-6.8S-918.3,537.4-918.3,541.2z
		 M-897.3,541.2c0-3.8-3.1-6.8-6.9-6.8c-3.8,0-6.9,3.1-6.9,6.8c0,3.8,3.1,6.8,6.9,6.8C-900.4,548-897.3,544.9-897.3,541.2z
		 M-877.2,541.2c0-3.8-3.1-6.8-6.9-6.8c-3.8,0-6.9,3.1-6.9,6.8c0,3.8,3.1,6.8,6.9,6.8C-880.3,548-877.2,544.9-877.2,541.2z"/>
</g>
</svg>
