<?xml version="1.0" encoding="utf-8"?>
<!-- Generator: Adobe Illustrator 17.0.0, SVG Export Plug-In . SVG Version: 6.00 Build 0)  -->
<!DOCTYPE svg PUBLIC "-//W3C//DTD SVG 1.1//EN" "http://www.w3.org/Graphics/SVG/1.1/DTD/svg11.dtd">
<svg version="1.1" id="Layer_1" xmlns="http://www.w3.org/2000/svg" xmlns:xlink="http://www.w3.org/1999/xlink" x="0px" y="0px"
	 width="39.882px" height="39.882px" viewBox="-9.17 -3.424 39.882 39.882" enable-background="new -9.17 -3.424 39.882 39.882"
	 xml:space="preserve">
<path fill="#808080" d="M24.871,2.417c-3.766-3.766-8.774-5.841-14.1-5.841S0.437-1.35-3.33,2.417
	c-3.766,3.766-5.841,8.774-5.841,14.1s2.074,10.334,5.841,14.1c3.766,3.766,8.774,5.841,14.1,5.841s10.334-2.074,14.1-5.841
	c3.766-3.766,5.841-8.774,5.841-14.1S28.638,6.183,24.871,2.417z M20.32,6.968c2.551,2.551,3.955,5.942,3.955,9.549
	c0,2.544-0.701,4.978-2.008,7.088L3.683,5.02c2.11-1.306,4.545-2.008,7.088-2.008C14.378,3.013,17.769,4.417,20.32,6.968z
	 M1.222,26.066c-2.551-2.551-3.955-5.942-3.955-9.549c0-2.473,0.661-4.844,1.898-6.913l18.519,18.519
	c-2.069,1.237-4.44,1.897-6.913,1.897C7.164,30.021,3.772,28.617,1.222,26.066z"/>
</svg>
