<?xml version="1.0" encoding="utf-8"?>
<!-- Generator: Adobe Illustrator 17.0.0, SVG Export Plug-In . SVG Version: 6.00 Build 0)  -->
<!DOCTYPE svg PUBLIC "-//W3C//DTD SVG 1.1//EN" "http://www.w3.org/Graphics/SVG/1.1/DTD/svg11.dtd">
<svg version="1.1" id="Layer_1" xmlns="http://www.w3.org/2000/svg" xmlns:xlink="http://www.w3.org/1999/xlink" x="0px" y="0px"
	 width="32.892px" height="34.288px" viewBox="0 0 32.892 34.288" enable-background="new 0 0 32.892 34.288" xml:space="preserve">
<g>
	<path fill="#808080" d="M16.443,0C10.118,0,4.991,5.127,4.991,11.453c0,6.327,5.127,11.453,11.452,11.453
		c6.328,0,11.453-5.127,11.453-11.453C27.896,5.126,22.771,0,16.443,0z M17.002,20.523c-3.414,0-6.416-2.242-8.167-5.635h16.333
		C23.418,18.28,20.416,20.523,17.002,20.523z"/>
	<path fill="#808080" d="M23.356,24.392c-2.06,1.103-4.415,1.733-6.912,1.733c-2.496,0-4.849-0.628-6.909-1.733
		C5.085,25.561,1.597,28.33,0,34.288h32.892C31.294,28.33,27.807,25.559,23.356,24.392z"/>
</g>
</svg>
