<?xml version="1.0" encoding="utf-8"?>
<!-- Generator: Adobe Illustrator 17.0.0, SVG Export Plug-In . SVG Version: 6.00 Build 0)  -->
<!DOCTYPE svg PUBLIC "-//W3C//DTD SVG 1.1//EN" "http://www.w3.org/Graphics/SVG/1.1/DTD/svg11.dtd">
<svg version="1.1" id="Layer_1" xmlns="http://www.w3.org/2000/svg" xmlns:xlink="http://www.w3.org/1999/xlink" x="0px" y="0px"
	 width="40.449px" height="36.89px" viewBox="0 0 40.449 36.89" enable-background="new 0 0 40.449 36.89" xml:space="preserve">
<path id="map-5-icon_1_" fill="#808080" d="M19.93,0.381c-4.809,0-8.708,3.899-8.708,8.708c0,7.151,6.849,7.907,8.708,18.784
	c1.859-10.877,8.708-11.632,8.708-18.784C28.638,4.28,24.739,0.381,19.93,0.381z M19.93,12.001c-1.725,0-3.123-1.398-3.123-3.123
	c0-1.725,1.398-3.123,3.123-3.123c1.725,0,3.123,1.398,3.123,3.123C23.053,10.602,21.655,12.001,19.93,12.001z M40.449,37.271
	L29.145,33.18l-9.196,4.091l-9.13-4.091L0,37.271l6.633-13.199l7.4-3.219c0.533,0.771,1.04,1.61,1.493,2.576
	c-1.61,0.69-0.248,0.1-6.742,2.921l-2.761,5.495l4.559-1.724l2.65-4.729L12.16,30.53l7.003,3.142l0.785-3.541l0.884,3.574
	l7.036-3.174l-1.076-5.285l2.671,4.919l5.032,1.821l-2.826-5.624l-7.265-3.085c0.458-0.948,0.981-1.796,1.515-2.557l7.896,3.352
	L40.449,37.271z"/>
</svg>
