<?xml version="1.0" encoding="utf-8"?>
<!-- Generator: Adobe Illustrator 18.1.0, SVG Export Plug-In . SVG Version: 6.00 Build 0)  -->
<svg version="1.1" id="Layer_1" xmlns="http://www.w3.org/2000/svg" xmlns:xlink="http://www.w3.org/1999/xlink" x="0px" y="0px"
	 viewBox="-941.4 524.5 35.9 27.4" enable-background="new -941.4 524.5 35.9 27.4" xml:space="preserve">
<g>
	<path id="map-5-icon_7_" fill="#2CAFCB" d="M-929.7,524.5c-2.8,0-5.1,2.3-5.1,5.1c0,4.2,4,4.6,5.1,11c1.1-6.4,5.1-6.8,5.1-11
		C-924.6,526.8-926.9,524.5-929.7,524.5z M-929.7,531.3c-1,0-1.8-0.8-1.8-1.8c0-1,0.8-1.8,1.8-1.8c1,0,1.8,0.8,1.8,1.8
		C-927.9,530.5-928.7,531.3-929.7,531.3z M-917.7,546.1l-6.6-2.4l-5.4,2.4l-5.4-2.4l-6.3,2.4l3.9-7.7l4.3-1.9
		c0.3,0.5,0.6,0.9,0.9,1.5c-0.9,0.4-0.1,0.1-4,1.7l-1.6,3.2l2.7-1l1.6-2.8l-0.6,3l4.1,1.8l0.5-2.1l0.5,2.1l4.1-1.9l-0.6-3.1l1.6,2.9
		l2.9,1.1l-1.7-3.3l-4.3-1.8c0.3-0.6,0.6-1.1,0.9-1.5l4.6,2L-917.7,546.1z"/>
	<polygon fill="#2CAFCB" points="-914.4,550.9 -917.7,547.6 -916.7,546.5 -913.4,549.9 -906.6,543.2 -905.6,544.2 -912.3,550.9 
		-913.4,551.9 	"/>
</g>
</svg>
