<?xml version="1.0" encoding="utf-8"?>
<!-- Generator: Adobe Illustrator 18.1.0, SVG Export Plug-In . SVG Version: 6.00 Build 0)  -->
<svg version="1.1" id="Layer_1" xmlns="http://www.w3.org/2000/svg" xmlns:xlink="http://www.w3.org/1999/xlink" x="0px" y="0px"
	 viewBox="-941.4 524.5 35.9 33.9" enable-background="new -941.4 524.5 35.9 33.9" xml:space="preserve">
<g>
	<g>
		<g>
			<path d="M-911.2,552.2v6.2h-1.7v-6.2h-5.6v-1.5h5.6v-6h1.7v6h5.6v1.5H-911.2z"/>
		</g>
	</g>
	<path id="map-5-icon_11_" d="M-928.6,524.5c-3.1,0-5.6,2.5-5.6,5.6c0,4.6,4.4,5.1,5.6,12.1c1.2-7,5.6-7.5,5.6-12.1
		C-923,527-925.5,524.5-928.6,524.5z M-928.6,532c-1.1,0-2-0.9-2-2c0-1.1,0.9-2,2-2c1.1,0,2,0.9,2,2
		C-926.6,531.1-927.5,532-928.6,532z M-915.4,548.2l-7.3-2.6l-5.9,2.6l-5.9-2.6l-6.9,2.6l4.3-8.5l4.8-2.1c0.3,0.5,0.7,1,1,1.7
		c-1,0.4-0.2,0.1-4.3,1.9l-1.8,3.5l2.9-1.1l1.7-3l-0.7,3.3l4.5,2l0.5-2.3l0.6,2.3l4.5-2l-0.7-3.4l1.7,3.2l3.2,1.2l-1.8-3.6l-4.7-2
		c0.3-0.6,0.6-1.2,1-1.6l5.1,2.2L-915.4,548.2z"/>
</g>
</svg>
