<?xml version="1.0" encoding="utf-8"?>
<!-- Generator: Adobe Illustrator 17.0.0, SVG Export Plug-In . SVG Version: 6.00 Build 0)  -->
<!DOCTYPE svg PUBLIC "-//W3C//DTD SVG 1.1//EN" "http://www.w3.org/Graphics/SVG/1.1/DTD/svg11.dtd">
<svg version="1.1" id="Layer_1" xmlns="http://www.w3.org/2000/svg" xmlns:xlink="http://www.w3.org/1999/xlink" x="0px" y="0px"
	 width="53.719px" height="53.724px" viewBox="0 0 53.719 53.724" enable-background="new 0 0 53.719 53.724" xml:space="preserve">
<g>
	<g>
		<path fill="#FFFFFF" d="M26.857,14.805c-4.102,0-7.427,3.326-7.427,7.429c0,4.104,3.325,7.431,7.427,7.431
			c4.106,0,7.431-3.326,7.431-7.431C34.288,18.131,30.962,14.805,26.857,14.805z M27.22,28.118c-2.215,0-4.163-1.454-5.299-3.655
			h10.594C31.382,26.664,29.435,28.118,27.22,28.118z"/>
		<path fill="#FFFFFF" d="M31.342,30.628c-1.337,0.717-2.864,1.124-4.485,1.124c-1.618,0-3.145-0.407-4.481-1.124
			c-2.886,0.758-5.148,2.556-6.185,6.42h21.337C36.491,33.183,34.229,31.386,31.342,30.628z"/>
	</g>
	<g>
		<path fill="#FFFFFF" d="M53.712,25.293l-6.361,0.01C46.585,15.173,38.473,7.091,28.338,6.365L28.326,0l-3.04,0.006l0.012,6.366
			C15.17,7.137,7.088,15.251,6.362,25.383l-6.365,0.014l0.004,3.035l6.364-0.012c0.768,10.129,8.882,18.209,19.015,18.936
			l0.009,6.37l3.039-0.004l-0.014-6.37c10.13-0.766,18.21-8.88,18.94-19.013l6.366-0.01L53.712,25.293z M26.889,44.394
			c-9.668,0.018-17.545-7.83-17.562-17.497c-0.021-9.67,7.829-17.551,17.497-17.571c9.67-0.018,17.551,7.833,17.569,17.504
			C44.414,36.498,36.557,44.377,26.889,44.394z"/>
	</g>
</g>
</svg>
