<?xml version="1.0" encoding="utf-8"?>
<!-- Generator: Adobe Illustrator 18.1.0, SVG Export Plug-In . SVG Version: 6.00 Build 0)  -->
<svg version="1.1" id="Layer_1" xmlns="http://www.w3.org/2000/svg" xmlns:xlink="http://www.w3.org/1999/xlink" x="0px" y="0px"
	 viewBox="0 0 671.7 671.7" enable-background="new 0 0 671.7 671.7" xml:space="preserve">
<g>
	<path fill="#2CAFCB" d="M376.1,671.7H333c-28.7,0-57.4-2.9-83.2-11.5l-40.2-11.5l20.1-77.5l40.2,11.5c23,5.7,43.1,8.6,66,8.6h40.2
		V671.7z M467.9,645.9L427.7,577l34.4-20.1c20.1-11.5,37.3-25.8,51.7-40.2l28.7-28.7l57.4,57.4l-28.7,28.7
		c-20.1,20.1-43.1,37.3-68.9,54.5L467.9,645.9z M126.3,602.8l-28.7-28.7c-20.1-20.1-37.3-43.1-54.5-68.9L23,470.8l68.9-40.2L112,465
		c11.5,20.1,25.8,37.3,40.2,51.7l28.7,28.7L126.3,602.8z M648.8,462.2l-77.5-20.1l11.5-40.2c5.7-20.1,8.6-43.1,8.6-66v-40.2h80.4
		v40.2c0,28.7-2.9,57.4-11.5,86.1L648.8,462.2z M0,376v-40.2c0-28.7,2.9-57.4,11.5-86.1L23,209.6l77.5,20.1L89,269.8
		c-5.7,20.1-8.6,43.1-8.6,66V376H0z M577,241.1l-20.1-34.4c-11.5-20.1-25.8-37.3-40.2-51.7L488,126.3l57.4-57.4l28.7,28.7
		c20.1,20.1,40.2,43.1,54.5,68.9l20.1,34.4L577,241.1z M126.3,183.7l-57.4-57.4l28.7-28.7c20.1-20.1,43.1-40.2,68.9-54.5L200.9,23
		l40.2,68.9L206.7,112c-20.1,11.5-37.3,25.8-51.7,40.2L126.3,183.7z M439.2,100.5L399,89c-20.1-5.7-43.1-8.6-66-8.6h-40.2V0h43.1
		l0,0c25.8,0,54.5,2.9,83.2,11.5L459.3,23L439.2,100.5z"/>
</g>
</svg>
