<?xml version="1.0" encoding="utf-8"?>
<!-- Generator: Adobe Illustrator 18.1.0, SVG Export Plug-In . SVG Version: 6.00 Build 0)  -->
<svg version="1.1" id="Layer_1" xmlns="http://www.w3.org/2000/svg" xmlns:xlink="http://www.w3.org/1999/xlink" x="0px" y="0px"
	 viewBox="-653 379.4 412 323.2" enable-background="new -653 379.4 412 323.2" xml:space="preserve">
<path id="refresh-3-icon" d="M-329.8,427.6l-37.3,37.3c-20.2-20.2-48.2-32.7-79-32.7c-61.7,0-111.8,50.1-111.8,111.8c0,0,0,0,0,0
	h43.4l-69.3,69.3l-69.3-69.3h42.5c0,0,0,0,0,0c0-90.8,73.6-164.5,164.4-164.5C-400.6,379.4-359.5,397.8-329.8,427.6z M-241,538.1
	l-69.3-69.3l-69.3,69.3h43.4c0,0,0,0,0,0c0,61.7-50,111.8-111.8,111.8c-30.9,0-58.8-12.5-79-32.7l-37.3,37.3
	c29.8,29.8,70.9,48.2,116.3,48.2c90.8,0,164.4-73.6,164.4-164.5c0,0,0,0,0,0L-241,538.1L-241,538.1z"/>
</svg>
