<?xml version="1.0" encoding="utf-8"?>
<!-- Generator: Adobe Illustrator 17.0.0, SVG Export Plug-In . SVG Version: 6.00 Build 0)  -->
<!DOCTYPE svg PUBLIC "-//W3C//DTD SVG 1.1//EN" "http://www.w3.org/Graphics/SVG/1.1/DTD/svg11.dtd">
<svg version="1.1" id="Layer_1" xmlns="http://www.w3.org/2000/svg" xmlns:xlink="http://www.w3.org/1999/xlink" x="0px" y="0px"
	 width="36.912px" height="32.547px" viewBox="0 -0.173 36.912 32.547" enable-background="new 0 -0.173 36.912 32.547"
	 xml:space="preserve">
<path id="refresh-2-icon" fill="#808080" d="M11.982,2.272c-4.73,2.924-7.439,7.855-7.702,13.005H0l6.863,6.875l6.897-6.875H9.52
	c0.251-3.411,2.08-6.635,5.219-8.575c5.207-3.219,12.046-1.62,15.275,3.57c3.229,5.19,1.625,12.007-3.582,15.226
	c-4.765,2.945-10.897,1.856-14.378-2.328l-3.677,3.735c5.175,5.823,13.954,7.262,20.811,3.024
	c7.662-4.736,10.022-14.766,5.27-22.404C29.707-0.112,19.644-2.464,11.982,2.272z"/>
</svg>
