<?xml version="1.0" encoding="utf-8"?>
<!-- Generator: Adobe Illustrator 17.0.0, SVG Export Plug-In . SVG Version: 6.00 Build 0)  -->
<!DOCTYPE svg PUBLIC "-//W3C//DTD SVG 1.1//EN" "http://www.w3.org/Graphics/SVG/1.1/DTD/svg11.dtd">
<svg version="1.1" id="Layer_1" xmlns="http://www.w3.org/2000/svg" xmlns:xlink="http://www.w3.org/1999/xlink" x="0px" y="0px"
	 width="46.251px" height="46.249px" viewBox="0 0 46.251 46.249" enable-background="new 0 0 46.251 46.249" xml:space="preserve">
<path fill="#FFFFFF" d="M45.95,39.022l-8.719-8.721c-0.769-0.767-2.156-0.693-3.549,0.031l-3.805-3.801
	c4.956-6.475,4.489-15.771-1.434-21.695c-6.451-6.448-16.906-6.448-23.357,0c-6.447,6.451-6.447,16.908,0,23.356
	c5.925,5.924,15.22,6.392,21.696,1.435l3.803,3.8c-0.725,1.397-0.8,2.785-0.033,3.551l8.721,8.721
	c1.101,1.1,3.492,0.495,5.334-1.349C46.448,42.512,47.052,40.122,45.95,39.022z M7.542,25.737c-5.093-5.094-5.093-13.354,0-18.446
	c5.094-5.096,13.347-5.092,18.445,0c5.091,5.092,5.091,13.348,0,18.446C20.889,30.829,12.632,30.829,7.542,25.737z"/>
</svg>
