<?xml version="1.0" encoding="utf-8"?>
<!-- Generator: Adobe Illustrator 17.0.0, SVG Export Plug-In . SVG Version: 6.00 Build 0)  -->
<!DOCTYPE svg PUBLIC "-//W3C//DTD SVG 1.1//EN" "http://www.w3.org/Graphics/SVG/1.1/DTD/svg11.dtd">
<svg version="1.1" id="Layer_1" xmlns="http://www.w3.org/2000/svg" xmlns:xlink="http://www.w3.org/1999/xlink" x="0px" y="0px"
	 width="35.044px" height="35.044px" viewBox="0 0 35.044 35.044" enable-background="new 0 0 35.044 35.044" xml:space="preserve">
<path id="gear-icon_1_" fill="#FFFFFF" d="M35.044,19.882v-4.72l-2.55-0.907c-0.972-0.346-1.754-1.089-2.15-2.041v-0.001
	c-0.398-0.955-0.368-2.034,0.075-2.969l1.162-2.443l-3.338-3.338L25.8,4.625c-0.934,0.444-2.013,0.471-2.968,0.075l0,0
	c-0.956-0.396-1.698-1.177-2.044-2.15L19.88,0h-4.717l-0.907,2.55c-0.346,0.973-1.09,1.755-2.041,2.15V4.7
	c-0.959,0.397-2.037,0.368-2.97-0.076L6.801,3.463L3.463,6.801l1.162,2.443c0.444,0.934,0.472,2.014,0.075,2.97l-0.001,0.001
	c-0.396,0.954-1.175,1.695-2.149,2.041L0,15.162v4.72l2.55,0.906c0.971,0.346,1.753,1.089,2.149,2.042L4.7,22.831
	c0.397,0.956,0.368,2.035-0.075,2.969l-1.162,2.443l3.338,3.337l2.443-1.161c0.933-0.443,2.012-0.471,2.97-0.075v0.001
	c0.951,0.395,1.695,1.177,2.041,2.149l0.907,2.55h4.717l0.902-2.534c0.35-0.982,1.099-1.772,2.061-2.171v-0.001
	c0.945-0.394,2.016-0.366,2.942,0.073l2.458,1.169l3.338-3.337l-1.162-2.444c-0.443-0.933-0.473-2.012-0.075-2.967v-0.001
	c0.395-0.954,1.178-1.696,2.15-2.043L35.044,19.882z M17.522,23.948c-3.551,0-6.426-2.877-6.426-6.426s2.876-6.426,6.426-6.426
	c3.548,0,6.426,2.877,6.426,6.426S21.07,23.948,17.522,23.948z"/>
</svg>
