<?xml version="1.0" encoding="utf-8"?>
<!-- Generator: Adobe Illustrator 17.0.0, SVG Export Plug-In . SVG Version: 6.00 Build 0)  -->
<!DOCTYPE svg PUBLIC "-//W3C//DTD SVG 1.1//EN" "http://www.w3.org/Graphics/SVG/1.1/DTD/svg11.dtd">
<svg version="1.1" id="Layer_1" xmlns="http://www.w3.org/2000/svg" xmlns:xlink="http://www.w3.org/1999/xlink" x="0px" y="0px"
	 width="30.667px" height="32.201px" viewBox="0 0 30.667 32.201" enable-background="new 0 0 30.667 32.201" xml:space="preserve">
<path fill="#808080" d="M25.638,22.158c-1.519,0-2.879,0.678-3.802,1.741L9.868,17.46c0.122-0.433,0.191-0.887,0.191-1.36
	c0-0.473-0.07-0.927-0.191-1.36l11.968-6.44c0.923,1.065,2.282,1.743,3.802,1.743c2.774,0,5.029-2.254,5.029-5.016
	C30.667,2.255,28.412,0,25.638,0c-2.776,0-5.031,2.255-5.031,5.028c0,0.472,0.07,0.926,0.193,1.36L8.826,12.817
	c-0.923-1.058-2.281-1.729-3.799-1.729C2.254,11.088,0,13.325,0,16.101s2.254,5.011,5.028,5.011c1.517,0,2.876-0.669,3.799-1.73
	L20.8,25.814c-0.123,0.433-0.193,0.889-0.193,1.358c0,2.773,2.255,5.029,5.031,5.029c2.774,0,5.029-2.256,5.029-5.029
	C30.667,24.41,28.412,22.158,25.638,22.158z"/>
</svg>
