<?xml version="1.0" encoding="utf-8"?>
<!-- Generator: Adobe Illustrator 18.1.0, SVG Export Plug-In . SVG Version: 6.00 Build 0)  -->
<svg version="1.1" id="Layer_1" xmlns="http://www.w3.org/2000/svg" xmlns:xlink="http://www.w3.org/1999/xlink" x="0px" y="0px"
	 viewBox="-910 492.7 98.7 96.6" enable-background="new -910 492.7 98.7 96.6" xml:space="preserve">
<g>
	<g>
		<path fill="#FFFFFF" d="M-816.3,559h-89c-2.7,0-5-2.2-5-5v-26c0-2.7,2.2-5,5-5h89c2.7,0,5,2.2,5,5v26
			C-811.3,556.8-813.5,559-816.3,559z M-905.3,524c-2.2,0-4,1.8-4,4v26c0,2.2,1.8,4,4,4h89c2.2,0,4-1.8,4-4v-26c0-2.2-1.8-4-4-4
			C-816.3,524-905.3,524-905.3,524z"/>
	</g>
	<g>
		<path fill="#FFFFFF" d="M-894.1,547.6l1.6-2.2c1.1,1.2,2.9,2.3,5.3,2.3c2.4,0,3.3-1.2,3.3-2.3c0-3.5-9.7-1.3-9.7-7.4
			c0-2.7,2.4-4.9,6.1-4.9c2.6,0,4.7,0.8,6.2,2.3l-1.7,2.2c-1.3-1.3-3.1-1.9-4.8-1.9c-1.7,0-2.8,0.8-2.8,2.1c0,3.1,9.7,1.2,9.7,7.4
			c0,2.8-1.9,5.1-6.4,5.1C-890.4,550.2-892.6,549.1-894.1,547.6z"/>
		<path fill="#FFFFFF" d="M-878.9,541.6c0-5,3.5-8.6,8.5-8.6c5,0,8.5,3.6,8.5,8.6c0,5-3.5,8.6-8.5,8.6
			C-875.4,550.2-878.9,546.6-878.9,541.6z M-864.9,541.6c0-3.4-2.2-6-5.5-6c-3.4,0-5.5,2.6-5.5,6c0,3.4,2.1,6,5.5,6
			C-867.1,547.6-864.9,545-864.9,541.6z"/>
		<path fill="#FFFFFF" d="M-849.7,549.9l-3.7-6.2h-2.9v6.2h-2.9v-16.6h7.3c3.3,0,5.4,2.1,5.4,5.2c0,3-1.9,4.6-3.9,4.9l4.1,6.5
			H-849.7z M-849.4,538.5c0-1.6-1.2-2.6-2.8-2.6h-4v5.3h4C-850.6,541.2-849.4,540.1-849.4,538.5z"/>
		<path fill="#FFFFFF" d="M-839.8,549.9v-14h-5v-2.6h13v2.6h-5v14H-839.8z"/>
	</g>
</g>
</svg>
