<?xml version="1.0" encoding="utf-8"?>
<!-- Generator: Adobe Illustrator 18.1.0, SVG Export Plug-In . SVG Version: 6.00 Build 0)  -->
<svg version="1.1" id="Layer_1" xmlns="http://www.w3.org/2000/svg" xmlns:xlink="http://www.w3.org/1999/xlink" x="0px" y="0px"
	 viewBox="860 440 200 200" enable-background="new 860 440 200 200" xml:space="preserve">
<g>
	<path fill="#2FAFCB" d="M1058.4,565.6c0,6-4.7,10.7-10.7,10.7H872.3c-6,0-10.7-4.7-10.7-10.7v-51.2c0-6,4.7-10.7,10.7-10.7h175.3
		c6,0,10.7,4.7,10.7,10.7V565.6z M1054.4,514.1c0-3.7-3-6.7-6.7-6.7H872.3c-3.7,0-6.7,3-6.7,6.7v51.2c0,3.7,3,6.7,6.7,6.7h175.3
		c3.7,0,6.7-3,6.7-6.7V514.1z"/>
	<g>
		<path fill="#2FAFCB" d="M897.8,551.2l3.3-4.3c2.3,2.3,5.7,4.3,10.4,4.3c4.7,0,6.7-2.3,6.7-4.3c0-7-19.1-2.7-19.1-14.7
			c0-5.4,4.7-9.7,12-9.7c5,0,9.4,1.7,12.4,4.7l-3.3,4.3c-2.7-2.7-6-3.7-9.4-3.7s-5.7,1.7-5.7,4c0,6,19.1,2.3,19.1,14.4
			c0,5.4-3.7,10-12.7,10C905.1,556.6,900.8,554.2,897.8,551.2z"/>
		<path fill="#2FAFCB" d="M927.5,539.5c0-9.7,7-17.1,16.7-17.1s16.7,7,16.7,17.1c0,9.7-7,17.1-16.7,17.1S927.5,549.2,927.5,539.5z
			 M955,539.5c0-6.7-4.3-11.7-10.7-11.7c-6.7,0-10.7,5-10.7,11.7s4.3,11.7,10.7,11.7C951,551.2,955,546.2,955,539.5z"/>
		<path fill="#2FAFCB" d="M985.1,556.6l-7.4-13.7h-6.4v13.7h-6v-33.5h15.1c6.4,0,10.7,4.3,10.7,10.4c0,5.7-3.7,9.4-7.7,10l8,13.4
			h-6.4V556.6z M985.8,533.8c0-3-2.3-5-5.7-5h-8.4v9.7h8.4C983.4,538.8,985.8,537.2,985.8,533.8z"/>
		<path fill="#2FAFCB" d="M1005.2,556.6v-27.4h-9.7v-6h25.8v6h-9.7v27.4H1005.2z"/>
	</g>
</g>
</svg>
