<?xml version="1.0" encoding="utf-8"?>
<!-- Generator: Adobe Illustrator 17.0.0, SVG Export Plug-In . SVG Version: 6.00 Build 0)  -->
<!DOCTYPE svg PUBLIC "-//W3C//DTD SVG 1.1//EN" "http://www.w3.org/Graphics/SVG/1.1/DTD/svg11.dtd">
<svg version="1.1" id="Layer_1" xmlns="http://www.w3.org/2000/svg" xmlns:xlink="http://www.w3.org/1999/xlink" x="0px" y="0px"
	 width="31.144px" height="37.905px" viewBox="0 0 31.144 37.905" enable-background="new 0 0 31.144 37.905" xml:space="preserve">
<path id="time-9-icon_1_" fill="#808080" d="M24.068,6.269l1.901-2.771l2.984,2.06l-1.891,2.758
	C26.136,7.535,25.135,6.85,24.068,6.269z M12.825,0v4.326c0.895-0.138,1.813-0.212,2.747-0.212c0.916,0,1.816,0.066,2.697,0.203V0
	H12.825z M31.144,21.951c0,8.6-6.975,15.572-15.572,15.572C6.968,37.523,0,30.551,0,21.951C0,13.354,6.968,6.382,15.572,6.382
	C24.169,6.382,31.144,13.354,31.144,21.951z M27.061,21.951c0-6.354-5.138-11.489-11.489-11.489
	c-6.354,0-11.489,5.141-11.489,11.489c0,6.354,5.135,11.489,11.489,11.489C21.923,33.44,27.061,28.302,27.061,21.951z
	 M18.588,22.769c0,1.579-1.279,2.857-2.857,2.857c-1.576,0-2.858-1.277-2.858-2.857c0-1.024,0.539-1.92,1.354-2.422l1.041-7.854
	c0.024-0.18,0.169-0.313,0.351-0.319c0.176-0.003,0.331,0.124,0.361,0.3l1.208,7.843C18.027,20.812,18.588,21.728,18.588,22.769z"/>
</svg>
