<?xml version="1.0" encoding="utf-8"?>
<!-- Generator: Adobe Illustrator 18.1.0, SVG Export Plug-In . SVG Version: 6.00 Build 0)  -->
<svg version="1.1" id="Layer_1" xmlns="http://www.w3.org/2000/svg" xmlns:xlink="http://www.w3.org/1999/xlink" x="0px" y="0px"
	 viewBox="-933 515.8 56.5 45.9" enable-background="new -933 515.8 56.5 45.9" xml:space="preserve">
<g id="twitter-icon_3_">
	<path fill="#FFFFFF" d="M-876.5,521.2c-2.1,0.9-4.3,1.5-6.7,1.8c2.4-1.4,4.2-3.7,5.1-6.4c-2.2,1.3-4.7,2.3-7.4,2.8
		c-2.1-2.3-5.1-3.7-8.5-3.7c-7.5,0-13,7-11.3,14.2c-9.6-0.5-18.2-5.1-23.9-12.1c-3,5.2-1.6,12,3.6,15.5c-1.9-0.1-3.7-0.6-5.3-1.5
		c-0.1,5.4,3.7,10.4,9.3,11.5c-1.6,0.4-3.4,0.5-5.2,0.2c1.5,4.6,5.8,8,10.8,8.1c-4.9,3.8-11,5.5-17.2,4.8c5.1,3.3,11.2,5.2,17.8,5.2
		c21.5,0,33.7-18.2,33-34.5C-880,525.6-878,523.5-876.5,521.2z"/>
</g>
</svg>
