<?xml version="1.0" encoding="utf-8"?>
<!-- Generator: Adobe Illustrator 17.0.0, SVG Export Plug-In . SVG Version: 6.00 Build 0)  -->
<!DOCTYPE svg PUBLIC "-//W3C//DTD SVG 1.1//EN" "http://www.w3.org/Graphics/SVG/1.1/DTD/svg11.dtd">
<svg version="1.1" id="Layer_1" xmlns="http://www.w3.org/2000/svg" xmlns:xlink="http://www.w3.org/1999/xlink" x="0px" y="0px"
	 width="33.471px" height="31.314px" viewBox="0 0 33.471 31.314" enable-background="new 0 0 33.471 31.314" xml:space="preserve">
<path id="facebook-like-icon_6_" fill="#808080" d="M33.471,18.158V4.08L28.906,0L18.838,0L14.7,2.266h-3.723V0.664H0l0,18.537
	h10.976v-1.882c3.757,0.73,5.576,5.119,7.336,9.367c0.535,1.29,2.053,4.628,2.053,4.628h5.921v-3.637l-0.926-3.162v-3.829h4.228
	L33.471,18.158z M19.487,2.361h8.653l2.971,2.603v11.99l-2.149,1.371h-5.961v6.259l0.926,3.162v1.207h-2.061
	c-0.228-0.517-1.006-2.287-1.373-3.172c-1.954-4.714-4.168-10.057-9.385-10.838c-0.044-0.007-0.085-0.012-0.123-0.017V4.622
	l4.48,0.005L19.487,2.361L19.487,2.361z"/>
</svg>
