<?xml version="1.0" encoding="utf-8"?>
<!-- Generator: Adobe Illustrator 18.1.0, SVG Export Plug-In . SVG Version: 6.00 Build 0)  -->
<svg version="1.1" id="Layer_1" xmlns="http://www.w3.org/2000/svg" xmlns:xlink="http://www.w3.org/1999/xlink" x="0px" y="0px"
	 viewBox="-941.4 524.5 33.5 27.4" enable-background="new -941.4 524.5 33.5 27.4" xml:space="preserve">
<g>
	<polygon points="-916.6,550.9 -920,547.6 -919,546.5 -915.6,549.9 -908.9,543.2 -907.9,544.2 -914.6,550.9 -915.6,551.9 	"/>
	<path d="M-919.4,548.9"/>
	<path d="M-931.2,524.6c-3.9,0-7.1,3.2-7.1,7.1c0,3.9,3.2,7.1,7.1,7.1c3.9,0,7.1-3.2,7.1-7.1C-924,527.8-927.2,524.6-931.2,524.6z
		 M-930.8,537.4c-2.1,0-4-1.4-5.1-3.5h10.2C-926.8,536-928.7,537.4-930.8,537.4z"/>
	<path d="M-926.9,539.8c-1.3,0.7-2.7,1.1-4.3,1.1c-1.6,0-3-0.4-4.3-1.1c-2.8,0.7-4.9,2.5-5.9,6.2h20.5
		C-921.9,542.3-924.1,540.5-926.9,539.8z"/>
</g>
</svg>
