<?xml version="1.0" encoding="utf-8"?>
<!-- Generator: Adobe Illustrator 17.0.0, SVG Export Plug-In . SVG Version: 6.00 Build 0)  -->
<!DOCTYPE svg PUBLIC "-//W3C//DTD SVG 1.1//EN" "http://www.w3.org/Graphics/SVG/1.1/DTD/svg11.dtd">
<svg version="1.1" id="Layer_1" xmlns="http://www.w3.org/2000/svg" xmlns:xlink="http://www.w3.org/1999/xlink" x="0px" y="0px"
	 width="48.86px" height="50.338px" viewBox="0 0 48.86 50.338" enable-background="new 0 0 48.86 50.338" xml:space="preserve">
<g>
	<g>
		<g>
			<polygon fill="#808080" points="40.726,39.754 40.726,31.551 38.238,31.551 38.238,39.754 30.159,39.754 30.159,42.244 
				38.238,42.244 38.238,50.338 40.726,50.338 40.726,42.244 48.86,42.244 48.86,39.754 			"/>
			<path fill="#808080" d="M17.787,0C10.946,0,5.401,5.546,5.401,12.389c0,6.845,5.545,12.391,12.386,12.391
				c6.846,0,12.391-5.546,12.391-12.391C30.178,5.546,24.633,0,17.787,0z M18.393,22.201c-3.693,0-6.943-2.424-8.836-6.096h17.667
				C25.333,19.776,22.087,22.201,18.393,22.201z"/>
			<path fill="#808080" d="M25.264,26.385c-2.227,1.196-4.774,1.875-7.477,1.875c-2.699,0-5.244-0.679-7.472-1.875
				C5.502,27.649,1.73,30.648,0,37.092h35.581C33.853,30.646,30.081,27.649,25.264,26.385z"/>
		</g>
		<g>
			<polygon fill="#808080" points="40.726,39.754 40.726,31.551 38.238,31.551 38.238,39.754 30.159,39.754 30.159,42.244 
				38.238,42.244 38.238,50.338 40.726,50.338 40.726,42.244 48.86,42.244 48.86,39.754 			"/>
			<path fill="#808080" d="M17.787,0C10.946,0,5.401,5.546,5.401,12.389c0,6.845,5.545,12.391,12.386,12.391
				c6.846,0,12.391-5.546,12.391-12.391C30.178,5.546,24.633,0,17.787,0z M18.393,22.201c-3.693,0-6.943-2.424-8.836-6.096h17.667
				C25.333,19.776,22.087,22.201,18.393,22.201z"/>
			<path fill="#808080" d="M25.264,26.385c-2.227,1.196-4.774,1.875-7.477,1.875c-2.699,0-5.244-0.679-7.472-1.875
				C5.502,27.649,1.73,30.648,0,37.092h35.581C33.853,30.646,30.081,27.649,25.264,26.385z"/>
		</g>
	</g>
</g>
</svg>
