<?xml version="1.0" encoding="utf-8"?>
<!-- Generator: Adobe Illustrator 18.1.0, SVG Export Plug-In . SVG Version: 6.00 Build 0)  -->
<svg version="1.1" id="Layer_1" xmlns="http://www.w3.org/2000/svg" xmlns:xlink="http://www.w3.org/1999/xlink" x="0px" y="0px"
	 viewBox="-946 527.3 26.8 27.7" enable-background="new -946 527.3 26.8 27.7" xml:space="preserve">
<path id="eye-6-icon_25_" fill="#808080" d="M-932.6,549c-5.4,0-10.3-3.7-13.4-8.3c3.1-4.4,8-7.4,13.4-7.4c5.4,0,10.3,2.9,13.4,7.3
	C-922.1,545.5-927,549-932.6,549z M-943.2,540.7c2.6,3.2,6.4,5.9,10.6,5.9c5.7,0,9.4-4.3,10.6-5.9c-2.6-3-6.4-5.2-10.6-5.2
	C-938.1,535.6-941.8,539.2-943.2,540.7z M-932.5,536.6c-2.5,0-4.5,2-4.5,4.5c0,2.5,2,4.5,4.5,4.5c2.5,0,4.5-2,4.5-4.5
	S-930,536.6-932.5,536.6z M-932.5,541.1c-0.6,0.6-1.7,0.6-2.3,0c-0.6-0.6-0.6-1.7,0-2.3c0.6-0.6,1.7-0.6,2.3,0
	C-931.8,539.5-931.8,540.5-932.5,541.1z"/>
</svg>
